<?xml version="1.0" encoding="UTF-8"?>
<svg width="68px" height="63px" viewBox="0 0 68 63" version="1.1" xmlns="http://www.w3.org/2000/svg" xmlns:xlink="http://www.w3.org/1999/xlink">
    <!-- Generator: Sketch 42 (36781) - http://www.bohemiancoding.com/sketch -->
    <title>noun_dog_1609863</title>
    <desc>Created with Sketch.</desc>
    <defs></defs>
    <g id="Page-1" stroke="none" stroke-width="1" fill="none" fill-rule="evenodd">
        <g id="noun_dog_1609863" fill-rule="nonzero" fill="#FFFFFF">
            <g id="Group">
                <path d="M39.1234762,40.5865385 L28.8765238,40.5865385 C28.2054286,40.5865385 27.6622381,41.1285 27.6622381,41.7980769 L27.6622381,42.4240385 C27.6622381,44.9650385 29.734619,47.0335385 32.2821905,47.0335385 L32.7857143,47.0335385 L32.7857143,53.8076538 L28.8765238,53.8076538 C28.2054286,53.8076538 27.6622381,54.3496154 27.6622381,55.0191923 C27.6622381,55.6887692 28.2054286,56.2307308 28.8765238,56.2307308 L33.9797619,56.2307308 C33.9862381,56.2307308 33.9927143,56.2323462 33.9991905,56.2323462 C34.0056667,56.2323462 34.0121429,56.2307308 34.018619,56.2307308 L39.1218571,56.2307308 C39.7929524,56.2307308 40.3361429,55.6887692 40.3361429,55.0191923 C40.3361429,54.3496154 39.7929524,53.8076538 39.1218571,53.8076538 L35.2142857,53.8076538 L35.2142857,47.0335385 L35.718619,47.0335385 C38.265381,47.0335385 40.3377619,44.9658462 40.3377619,42.4240385 L40.3377619,41.7980769 C40.3377619,41.1285 39.7937619,40.5865385 39.1234762,40.5865385 Z M35.718619,44.6096538 L32.2821905,44.6096538 C31.2767619,44.6096538 30.4275714,43.9311923 30.1709524,43.0088077 L37.8290476,43.0088077 C37.5724286,43.9311923 36.7232381,44.6096538 35.718619,44.6096538 Z" id="Shape"></path>
                <path d="M29.733,34.1629615 C29.733,32.3109231 28.2224286,30.8029615 26.365381,30.8029615 C24.5083333,30.8029615 22.9977619,32.3101154 22.9977619,34.1629615 C22.9977619,36.0158077 24.5083333,37.5229615 26.365381,37.5229615 C28.2224286,37.5229615 29.733,36.0158077 29.733,34.1629615 Z" id="Shape"></path>
                <path d="M56.9362381,0 C51.1594762,0 46.459381,4.0642 46.459381,9.0601 L46.459381,21.0889 C44.1684286,19.3655 41.4427619,18.1454 38.5098571,17.5385 C37.0405714,17.2235 35.5235238,17.0639 34,17.0639 C29.2351429,17.0639 24.8782857,18.5927 21.540619,21.1078 L21.540619,9.0601 C21.540619,4.0642 16.8405238,0 11.0637619,0 C5.28619048,0 0.586095238,4.0642 0.586095238,9.0601 C0.586095238,11.4646 2.84790476,13.4204 5.62861905,13.4204 C7.22985714,13.4204 8.7007619,12.9283 9.84947619,12.11 L9.84947619,15.6807 C9.84947619,20.0137 13.3870952,23.6411 18.0944762,24.5287 C16.1459524,27.1068 15.0085714,30.1826 15.0085714,33.4859 L15.0085714,46.578 C15.0085714,55.6332 23.528,63 34,63 C44.472,63 52.9914286,55.6332 52.9914286,46.578 L52.9914286,33.4859 C52.9914286,30.2589 51.916381,27.1726 49.9176667,24.5259 C54.6185714,23.6341 58.1505238,20.0095 58.1505238,15.6807 L58.1505238,12.11 C59.2992381,12.9283 60.7701429,13.4204 62.371381,13.4204 C65.1520952,13.4204 67.4139048,11.4646 67.4139048,9.0601 C67.4139048,4.0642 62.7138095,0 56.9362381,0 Z M44.5974762,33.8079 C44.5974762,35.2226 43.2706667,36.3699 41.634619,36.3699 C39.9985714,36.3699 38.6717619,35.2226 38.6717619,33.8079 C38.6717619,32.3932 39.9985714,31.2459 41.634619,31.2459 C43.2714762,31.2459 44.5974762,32.3932 44.5974762,33.8079 Z M5.62861905,11.3204 C4.18766667,11.3204 3.01466667,10.3061 3.01466667,9.0601 C3.01466667,5.579 5.98480952,2.6866 9.84947619,2.1791 L9.84947619,7.6706 C9.84947619,9.6831 7.956,11.3204 5.62861905,11.3204 Z M12.2780476,15.6807 L12.2780476,7.6706 L12.2780476,2.1791 C16.1419048,2.6873 19.1120476,5.579 19.1120476,9.0601 L19.1120476,22.5617 C15.2481905,22.0542 12.2780476,19.1618 12.2780476,15.6807 Z M34,60.9 C24.8669524,60.9 17.4371429,54.4754 17.4371429,46.578 L17.4371429,33.4859 C17.4371429,30.0594 18.8392381,26.9129 21.1682381,24.4454 C21.2305714,24.3936 21.2864286,24.3376 21.335,24.2753 C24.3755714,21.154 28.9218571,19.1639 34,19.1639 C34.7018571,19.1639 35.4020952,19.2059 36.0966667,19.2829 C32.2595238,22.9194 31.501,28.9968 34.4881429,34.2559 C37.1215238,38.8836 42.1867143,41.6108 47.5093333,41.6108 C48.5228571,41.6108 49.5452857,41.503 50.5620476,41.2993 L50.5620476,46.578 C50.5628571,54.4754 43.1330476,60.9 34,60.9 Z M55.7219524,15.6807 C55.7219524,19.1618 52.7518095,22.0542 48.8879524,22.5617 L48.8879524,9.0601 C48.8879524,5.579 51.8580952,2.6873 55.7219524,2.1791 L55.7219524,7.6706 L55.7219524,15.6807 Z M62.371381,11.3204 C60.044,11.3204 58.1505238,9.6831 58.1505238,7.6706 L58.1505238,2.1791 C62.014381,2.6866 64.9853333,5.579 64.9853333,9.0601 C64.9853333,10.3061 63.8123333,11.3204 62.371381,11.3204 Z" id="Shape"></path>
            </g>
        </g>
    </g>
</svg>