<?xml version="1.0" encoding="UTF-8"?>
<svg width="44px" height="60px" viewBox="0 0 44 60" version="1.1" xmlns="http://www.w3.org/2000/svg" xmlns:xlink="http://www.w3.org/1999/xlink">
    <!-- Generator: Sketch 42 (36781) - http://www.bohemiancoding.com/sketch -->
    <title>Group</title>
    <desc>Created with Sketch.</desc>
    <defs></defs>
    <g id="Page-1" stroke="none" stroke-width="1" fill="none" fill-rule="evenodd">
        <g id="Group" fill-rule="nonzero" fill="#FFFFFF">
            <circle id="Oval" cx="16" cy="20" r="2"></circle>
            <circle id="Oval" cx="27" cy="20" r="2"></circle>
            <rect id="Rectangle-path" x="14" y="14" width="16" height="2"></rect>
            <path d="M36.19,40.08 L30.37,39.31 C29.5862681,39.2005095 29.0023428,38.5313396 29,37.74 L29,34.74 C32.1369293,32.4871059 33.9978128,28.8621047 34,25 L34,24 C36.209139,24 38,22.209139 38,20 C37.9850339,19.0572301 37.6298935,18.1516219 37,17.45 L37.37,13.39 C37.7552475,9.35065756 35.3687405,5.55935644 31.56,4.16 C29.4852666,1.5468493 26.3365848,0.0166487713 23,8.8817842e-16 L21,8.8817842e-16 C17.6458632,0.00145716672 14.4756632,1.5331682 12.39,4.16 C8.58125945,5.55935644 6.19475246,9.35065756 6.58,13.39 L7,17.45 C6.37010653,18.1516219 6.01496606,19.0572301 6,20 C6,22.209139 7.790861,24 10,24 L10,25 C9.99674884,26.725958 10.3686663,28.4320015 11.09,30 C11.034805,30.3305842 11.004719,30.664873 11,31 C11,31.5522847 11.4477153,32 12,32 L12.26,32 C13.0197025,33.0521759 13.9450535,33.9741496 15,34.73 L15,37.73 C14.9976572,38.5213396 14.4137319,39.1905095 13.63,39.3 L7.81,40.07 C3.33557819,40.666856 -0.00452333811,44.4859478 0,49 L0,60 L2,60 L2,56 L8,56 L8,60 L10,60 L10,52 L8,52 L8,54 L2,54 L2,49 C2.00464926,45.4931379 4.60355421,42.5308992 8.08,42.07 L11.61,41.59 L15.09,49.41 C15.2510883,49.768359 15.6071006,49.9991802 16,50 L16.16,50 L21,49.18 L21,60 L23,60 L23,49.18 L27.84,49.99 L28,49.99 C28.3928994,49.9891802 28.7489117,49.758359 28.91,49.4 L32.39,41.58 L35.92,42.06 C39.4002148,42.521402 42.0003613,45.4893324 42,49 L42,54 L36,54 L36,52 L34,52 L34,60 L36,60 L36,56 L42,56 L42,60 L44,60 L44,49 C43.9995084,44.4897517 40.6606488,40.676355 36.19,40.08 L36.19,40.08 Z M34,22 L34,18 C35.1045695,18 36,18.8954305 36,20 C36,21.1045695 35.1045695,22 34,22 Z M13.32,6 C13.5103553,5.93197054 13.6770268,5.81043921 13.8,5.65 C15.4944038,3.37107241 18.1602588,2.01963202 21,2 L23,2 C25.8309652,2.00781498 28.4951689,3.33991685 30.2,5.6 C30.3229732,5.76043921 30.4896447,5.88197054 30.68,5.95 C33.7529288,6.9787883 35.7180057,9.9822532 35.43,13.21 L35.16,16.21 C34.7858271,16.0830935 34.3949161,16.0123251 34,16 L34,12 C34,9.23857625 31.7614237,7 29,7 L27,7 C26.6654809,7.00173065 26.3539835,7.17061479 26.17,7.45 L25.83,7.95 C24.9772377,9.23193983 23.5396666,10.0022363 22,10.0022363 C20.4603334,10.0022363 19.0227623,9.23193983 18.17,7.95 L17.83,7.45 C17.6460165,7.17061479 17.3345191,7.00173065 17,7 L15,7 C12.2385763,7 10,9.23857625 10,12 L10,16 C9.60608663,16.005864 9.21520041,16.0698885 8.84,16.19 L8.57,13.19 C8.31570585,9.98726237 10.274272,7.02261173 13.32,6 L13.32,6 Z M8,20 C8,18.8954305 8.8954305,18 10,18 L10,22 C8.8954305,22 8,21.1045695 8,20 Z M12,25 L12,12 C12,10.3431458 13.3431458,9 15,9 L16.46,9 L16.46,9.06 C17.6859071,10.899021 19.7498312,12.003653 21.96,12.003653 C24.1701688,12.003653 26.2340929,10.899021 27.46,9.06 L27.46,9 L29,9 C30.6568542,9 32,10.3431458 32,12 L32,25 C32.0004144,26.6248442 31.6021007,28.2249664 30.84,29.66 C30.2159446,26.9362868 27.7942877,25.0039372 25,25 L20.44,25 L22.94,18.35 L21.06,17.65 L18.31,25 L17,25 C15.1552072,25.0034346 13.4145463,25.8553259 12.28,27.31 C12.0959097,26.553734 12.0019234,25.7783468 12,25 Z M13.13,30 C13.5857202,28.2350012 15.1771177,27.0013597 17,27 L19.87,27 C19.4142798,28.7649988 17.8228823,29.9986403 16,30 L13.13,30 Z M28.87,30 L26,30 C24.1771177,29.9986403 22.5857202,28.7649988 22.13,27 L25,27 C26.8228823,27.0013597 28.4142798,28.2350012 28.87,30 Z M16,32 C18.0123062,31.998528 19.889878,30.9883943 21,29.31 C22.110122,30.9883943 23.9876938,31.998528 26,32 L29.13,32 C27.2504262,33.9085785 24.6837067,34.9832789 22.005,34.9832789 C19.3262933,34.9832789 16.7595738,33.9085785 14.88,32 L16,32 Z M22,37 C23.7279398,37.0015079 25.4350181,36.6225365 27,35.89 L27,37.74 C27.0071901,38.5256775 27.2705131,39.2875588 27.75,39.91 L22,46.48 L16.25,39.91 C16.7294869,39.2875588 16.9928099,38.5256775 17,37.74 L17,35.88 C18.5652517,36.6128948 20.2716702,36.9951325 22,37 L22,37 Z M13.68,41.32 L13.89,41.32 C14.1437561,41.2884628 14.3924388,41.2246119 14.63,41.13 L20.07,47.34 L16.6,47.92 L13.68,41.32 Z M27.4,47.89 L23.93,47.31 L29.37,41.1 C29.6075612,41.1946119 29.8562439,41.2584628 30.11,41.29 L30.32,41.29 L27.4,47.89 Z" id="Shape"></path>
            <path d="M18.5,54 C19.3284271,54 20,53.3284271 20,52.5 C20,51.6715729 19.3284271,51 18.5,51 C17.6715729,51 17,51.6715729 17,52.5 C17,53.3284271 17.6715729,54 18.5,54 L18.5,54 Z M18.5,52 C18.7761424,52 19,52.2238576 19,52.5 C19,52.7761424 18.7761424,53 18.5,53 C18.2238576,53 18,52.7761424 18,52.5 C18,52.2238576 18.2238576,52 18.5,52 Z" id="Shape"></path>
        </g>
    </g>
</svg>