<?xml version="1.0" encoding="UTF-8"?>
<svg width="46px" height="60px" viewBox="0 0 46 60" version="1.1" xmlns="http://www.w3.org/2000/svg" xmlns:xlink="http://www.w3.org/1999/xlink">
    <!-- Generator: Sketch 42 (36781) - http://www.bohemiancoding.com/sketch -->
    <title>Untitled</title>
    <desc>Created with Sketch.</desc>
    <defs></defs>
    <g id="Page-1" stroke="none" stroke-width="1" fill="none" fill-rule="evenodd">
        <g id="Group" transform="translate(1.000000, 0.000000)" fill-rule="nonzero" fill="#FFFFFF">
            <circle id="Oval" cx="28" cy="19" r="2"></circle>
            <path d="M18.08,24.38 C18.1883072,24.6477272 18.407074,24.8555558 18.68,24.95 L21.68,25.95 L22.32,24.05 L20.41,23.42 L22.89,18.42 L21.11,17.52 L18.11,23.52 C17.9708626,23.7874852 17.9598399,24.1034695 18.08,24.38 Z" id="Shape"></path>
            <circle id="Oval" cx="15" cy="19" r="2"></circle>
            <path d="M21,10 C21,7.65 18.94,5.53 18.71,5.29 L17.29,6.71 C18.2052302,7.58957194 18.806051,8.74553723 19,10 L21,10 Z" id="Shape"></path>
            <path d="M26.71,6.71 L25.29,5.29 C25.06,5.53 23,7.65 23,10 L25,10 C25.193949,8.74553723 25.7947698,7.58957194 26.71,6.71 L26.71,6.71 Z" id="Shape"></path>
            <path d="M31,10 L31,8 C29.9663466,8.0729975 28.998414,8.53374769 28.29,9.29 L29.71,10.71 C30.0441067,10.3302168 30.5003917,10.0790832 31,10 Z" id="Shape"></path>
            <path d="M16.71,9.29 C16.001586,8.53374769 15.0336534,8.0729975 14,8 L14,10 C14.5067802,10.0746305 14.970821,10.3261335 15.31,10.71 L16.71,9.29 Z" id="Shape"></path>
            <path d="M22.59,27 L20,27 L20,29 L22.59,29 C23.7601596,29.0019825 24.8829104,28.5377682 25.71,27.71 L24.29,26.29 C23.8422717,26.7462426 23.2292282,27.0022784 22.59,27 L22.59,27 Z" id="Shape"></path>
            <path d="M37.87,40.35 L28.87,39.23 C28.3650349,39.1689766 27.9863261,38.7386257 27.99,38.23 L27.99,34.07 C30.1417972,32.7633311 31.8387672,30.8254334 32.85,28.52 C32.85,28.4 32.94,28.27 32.99,28.14 L32.99,28.92 C32.9773026,32.9307759 35.8812229,36.3561301 39.84,37 L40,37 C40.5522847,37 41,36.5522847 41,36 L41,9 C41,5.13400675 37.8659932,2 34,2 L29.17,2 C24.8475439,-0.577393553 19.4743127,-0.636500191 15.0962057,1.84518539 C10.7180987,4.32687098 8.0088397,8.96745532 8,14 L8,15.56 C6.45701726,16.4753392 5.712222,18.3060628 6.17796119,20.0386126 C6.64370037,21.7711623 8.20603612,22.9816894 10,23 L10.17,23 L10.17,23.8 C10.149649,28.016266 12.3692923,31.9263409 16,34.07 L16,38.23 C16.0036739,38.7386257 15.6249651,39.1689766 15.12,39.23 L6.12,40.35 C2.6201305,40.793501 -0.00278917495,43.7721434 -8.8817842e-16,47.3 L-8.8817842e-16,60 L2,60 L2,53 L7.42,53 C6.48615123,55.2157714 6.00340985,57.5954824 6,60 L8,60 C8.00109213,57.5253954 8.57616209,55.0847711 9.68,52.87 L9.89,52.45 C9.96138386,52.3106777 9.99906142,52.1565423 10,52 L10,49 L8,49 L8,51 L2,51 L2,47.3 C1.98043368,44.7636281 3.86311893,42.614444 6.38,42.3 L12.58,41.53 L12.72,41.85 C14.3134592,45.5594122 17.9628164,47.963573 22,47.963573 C26.0371836,47.963573 29.6865408,45.5594122 31.28,41.85 L31.42,41.53 L37.62,42.3 C40.1368811,42.614444 42.0195663,44.7636281 42,47.3 L42,51 L36,51 L36,49 L34,49 L34,52 C34.0009386,52.1565423 34.0386161,52.3106777 34.11,52.45 L34.32,52.87 C35.4238379,55.0847711 35.9989079,57.5253954 36,60 L38,60 C37.9965901,57.5954824 37.5138488,55.2157714 36.58,53 L42,53 L42,60 L44,60 L44,47.3 C44.0021563,43.7687832 41.3738382,40.7888792 37.87,40.35 L37.87,40.35 Z M36,19 C36,20.1045695 35.1045695,21 34,21 L33.88,21 L33.98,17 L33.98,17 C34.5138898,16.9946608 35.0277507,17.2030151 35.4071603,17.5786681 C35.7865698,17.9543211 36.0000267,18.4660835 36,19 Z M34,4 C36.7614237,4 39,6.23857625 39,9 L39,34.7 C36.588517,33.8001968 34.9924474,31.4938762 35,28.92 L35,22.86 C36.5514155,22.4407021 37.7012511,21.1336281 37.9193619,19.5414194 C38.1374727,17.9492107 37.3815025,16.3810675 36,15.56 L36,14 C36.0020916,10.2334366 34.4798912,6.62632665 31.78,4 L34,4 Z M10,21 C8.8954305,21 8,20.1045695 8,19 C8,17.8954305 8.8954305,17 10,17 L10.12,21 L10,21 Z M13,27.72 C12.4802612,26.4507017 12.2152319,25.0915771 12.22,23.72 L12,17.12 L13.9,12.37 L12.04,11.63 L10.72,15 L10,15 L10,14 C10,7.372583 15.372583,2 22,2 C28.627417,2 34,7.372583 34,14 L34,15 L33.62,15 L31.89,11.55 L30.11,12.45 L32,16.22 L31.82,23.77 C31.8060784,25.1274569 31.5275458,26.4691688 31,27.72 C30.0358976,29.9102716 28.3385439,31.6960292 26.2,32.77 L24.2,33.77 C22.7902149,34.476443 21.1297851,34.476443 19.72,33.77 L17.72,32.77 C15.6114255,31.6812833 13.9439556,29.8972318 13,27.72 L13,27.72 Z M22,46 C18.845666,46.0003617 15.979511,44.1650853 14.66,41.3 L15.37,41.21 C16.8809232,41.0222642 18.0116186,39.7324975 18,38.21 L18,35.12 L18.87,35.55 C20.8404218,36.5350161 23.1595782,36.5350161 25.13,35.55 L26,35.12 L26,38.23 C25.9883814,39.7524975 27.1190768,41.0422642 28.63,41.23 L29.34,41.32 C28.0146305,44.1772808 25.1497051,46.0039635 22,46 Z" id="Shape"></path>
        </g>
    </g>
</svg>