<?xml version="1.0" encoding="UTF-8"?>
<svg width="48px" height="61px" viewBox="0 0 48 61" version="1.1" xmlns="http://www.w3.org/2000/svg" xmlns:xlink="http://www.w3.org/1999/xlink">
    <!-- Generator: Sketch 42 (36781) - http://www.bohemiancoding.com/sketch -->
    <title>Untitled 2</title>
    <desc>Created with Sketch.</desc>
    <defs></defs>
    <g id="Page-1" stroke="none" stroke-width="1" fill="none" fill-rule="evenodd">
        <g id="Group" transform="translate(0.000000, 1.000000)" fill-rule="nonzero" fill="#FFFFFF">
            <circle id="Oval" cx="30" cy="19" r="2"></circle>
            <path d="M25.32,23.05 L23.26,22.37 L25,17.32 L23.1,16.68 L21.1,22.68 C20.9962914,22.9315085 20.9995301,23.2144148 21.1089692,23.4634832 C21.2184084,23.7125517 21.4246006,23.9062813 21.68,24 L24.68,25 L25.32,23.05 Z" id="Shape"></path>
            <path d="M22.76,27 L22,27 L22,29 L22.76,29 C24.3883803,28.999748 25.994256,28.6196793 27.45,27.89 L26.55,26.11 C25.371549,26.6931468 24.074839,26.9976513 22.76,27 L22.76,27 Z" id="Shape"></path>
            <circle id="Oval" cx="18" cy="19" r="2"></circle>
            <path d="M45.89,35.46 C46.9859,33.8999826 47.2751904,31.9119918 46.6693504,30.1043389 C46.0635104,28.296686 44.6346535,26.8845371 42.82,26.3 C42.9399902,25.8771096 43.0005708,25.4395835 43,25 C43.0069451,23.0055677 41.8279437,21.1977656 40,20.4 L40,20 C39.993762,19.034606 39.6385843,18.1040405 39,17.38 L39,15 C39,6.71572875 32.2842712,0 24,-4.4408921e-16 C15.7157288,-8.8817842e-16 9,6.71572875 9,15 L9,17.38 C8.36141568,18.1040405 8.00623802,19.034606 8,20 L8,20.4 C6.17205629,21.1977656 4.99305492,23.0055677 5,25 C4.99942925,25.4395835 5.06000978,25.8771096 5.18,26.3 C3.36534647,26.8845371 1.93648961,28.296686 1.33064961,30.1043389 C0.724809611,31.9119918 1.01410002,33.8999826 2.11,35.46 C0.730558282,36.6495532 -0.0338133382,38.4013381 0.0323089897,40.2216469 C0.0984313177,42.0419557 0.987887154,43.7336657 2.45,44.82 C2.15118036,45.6126295 1.99870919,46.452915 2,47.3 L2,60 L4,60 L4,47.3 C3.98043368,44.7636281 5.86311893,42.614444 8.38,42.3 L14.58,41.53 L14.72,41.85 C16.3134592,45.5594122 19.9628164,47.963573 24,47.963573 C28.0371836,47.963573 31.6865408,45.5594122 33.28,41.85 L33.42,41.53 L39.62,42.3 C42.1368811,42.614444 44.0195663,44.7636281 44,47.3 L44,60 L46,60 L46,47.3 C46.0012908,46.452915 45.8488196,45.6126295 45.55,44.82 C47.0121128,43.7336657 47.9015687,42.0419557 47.967691,40.2216469 C48.0338133,38.4013381 47.2694417,36.6495532 45.89,35.46 L45.89,35.46 Z M36,22 L35.64,22 L35.88,18 L36,18 C37.1045695,18 38,18.8954305 38,20 C38,21.1045695 37.1045695,22 36,22 Z M24,34 C18.9498798,34.0059738 14.7855627,30.0441499 14.54,25 L14.09,17.45 L24,9.29 L33.91,17.4 L33.46,25 C33.2144373,30.0441499 29.0501202,34.0059738 24,34 Z M37,15 L37,16.14 C36.673729,16.0522073 36.3378365,16.0051824 36,16 L35.36,16 L25,7.53 L25,2.05 C31.7673128,2.57210685 36.9940052,8.21257916 37,15 L37,15 Z M23,2.05 L23,7.53 L12.64,16 L12,16 C11.6621635,16.0051824 11.326271,16.0522073 11,16.14 L11,15 C11.0059948,8.21257916 16.2326872,2.57210685 23,2.05 L23,2.05 Z M12,18 L12.12,18 L12.36,22 L12,22 C10.8954305,22 10,21.1045695 10,20 C10,18.8954305 10.8954305,18 12,18 Z M8.13,40.35 C6.26115379,40.5872935 4.56683556,41.5678351 3.43,43.07 C2.42789875,42.2200339 1.90716591,40.9321018 2.0369275,39.6245043 C2.16668908,38.3169067 2.93039301,37.1564378 4.08,36.52 C4.36011581,36.3658987 4.54966388,36.0871515 4.59,35.77 C4.62342914,35.4510337 4.50925034,35.1342796 4.28,34.91 C3.12468618,33.8324724 2.71180819,32.1758974 3.22628021,30.6821993 C3.74075223,29.1885011 5.08618327,28.1375376 6.66,28 C7.00530446,27.9724424 7.31175281,27.7681435 7.47,27.46 C7.64863279,27.1505989 7.64863279,26.7694011 7.47,26.46 C7.18691084,26.023492 7.02472482,25.5196801 7,25 C7.00307081,23.8378282 7.67709703,22.7819837 8.73,22.29 C9.47626056,23.3587636 10.6964853,23.9968628 12,24 L12.48,24 L12.55,25.06 C12.7169791,28.8546908 14.7597395,32.318013 18,34.3 L18,38.23 C18.0036739,38.7386257 17.6249651,39.1689766 17.12,39.23 L8.13,40.35 Z M24,46 C20.845666,46.0003617 17.979511,44.1650853 16.66,41.3 L17.37,41.21 C18.8809232,41.0222642 20.0116186,39.7324975 20,38.21 L20,35.21 C22.5777845,36.1836922 25.4222155,36.1836922 28,35.21 L28,38.21 C27.9883814,39.7324975 29.1190768,41.0222642 30.63,41.21 L31.34,41.3 C30.020489,44.1650853 27.154334,46.0003617 24,46 Z M44.57,43.07 C43.4331644,41.5678351 41.7388462,40.5872935 39.87,40.35 L30.87,39.23 C30.3650349,39.1689766 29.9863261,38.7386257 29.99,38.23 L29.99,34.3 C33.2274073,32.3199669 35.2697568,28.8610888 35.44,25.07 L35.52,24 L36,24 C37.3035147,23.9968628 38.5237394,23.3587636 39.27,22.29 C40.322903,22.7819837 40.9969292,23.8378282 41,25 C40.9968349,25.5407601 40.8445859,26.0701713 40.56,26.53 C40.3813672,26.8394011 40.3813672,27.2205989 40.56,27.53 C40.7182472,27.8381435 41.0246955,28.0424424 41.37,28.07 C42.9258656,28.2211584 44.2511172,29.2648018 44.7628227,30.7418678 C45.2745283,32.2189338 44.8789152,33.8587429 43.75,34.94 C43.5207497,35.1642796 43.4065709,35.4810337 43.44,35.8 C43.4803361,36.1171515 43.6698842,36.3958987 43.95,36.55 C45.099607,37.1864378 45.8633109,38.3469067 45.9930725,39.6545043 C46.1228341,40.9621018 45.6021013,42.2500339 44.6,43.1 L44.57,43.07 Z" id="Shape"></path>
        </g>
    </g>
</svg>